# xmcd
# 
# Track frame offsets:
#     150
#     9428
#     20543
#     28342
#     42518
#     54728
#     67818
#     82967
#     98005
#     115253
#     129746
#     142126
#     152974
#     166849
#     179962
#     191898
#     202937
#     219551
#     233872
# 
# Disc length: 3360
# 
# Revision: 1
# Processed by: cddbd v1.5.2PL0 Copyright (c) Steve Scherf et al.
# Submitted via: fre:ac v1.0.31
# 
DISCID=150d1e13
DTITLE=Readers digest - From Sea to Shining Sea Disc 1
DYEAR=2004
DGENRE=Americana
TTITLE0=God Bless America
TTITLE1=America The Beautiful
TTITLE2=The Star-Spangled Banner
TTITLE3=America Is
TTITLE4=The Gettysburg Address
TTITLE5=The Eagle
TTITLE6=Living In The Promiseland
TTITLE7=In America
TTITLE8=The Battle Hymn Of The Republic
TTITLE9=God Bless The USA
TTITLE10=This Land Is Your Land
TTITLE11=Green, Green Grass Of Home
TTITLE12=The Tennessee Waltz
TTITLE13=Jambalaya (On The Bayou)
TTITLE14=Sixteen Tons
TTITLE15=The Yellow Rose Of Texas
TTITLE16=Mountain Music
TTITLE17=The Greatest
TTITLE18=Grandpa (Tell Me 'Bout The Good Old Days)
EXTD=Reader Digest Music 1 of 4
EXTT0=
EXTT1=
EXTT2=
EXTT3=
EXTT4=
EXTT5=
EXTT6=
EXTT7=
EXTT8=
EXTT9=
EXTT10=
EXTT11=
EXTT12=
EXTT13=
EXTT14=
EXTT15=
EXTT16=
EXTT17=
EXTT18=
PLAYORDER=
